<svg id="Layer_1" data-name="Layer 1" xmlns="http://www.w3.org/2000/svg" viewBox="0 0 792 792"><defs><style>.cls-1{fill:#fff;}.cls-2{fill:#f4671f;}.cls-3{fill:#7db3d1;}</style></defs><circle class="cls-1" cx="396" cy="396" r="388.58"/><path class="cls-2" d="M655.52,149.31a372.55,372.55,0,0,1,81.13,120.9A366.41,366.41,0,0,1,764.9,407,356.39,356.39,0,0,1,740.07,543a351.06,351.06,0,0,1-197,197A356.39,356.39,0,0,1,407,764.9a366.41,366.41,0,0,1-136.75-28.25,376.91,376.91,0,0,1-202-202A366.51,366.51,0,0,1,39.93,397.88,356.37,356.37,0,0,1,64.77,261.8a350.91,350.91,0,0,1,197-197A356.37,356.37,0,0,1,397.88,39.93,366.51,366.51,0,0,1,534.62,68.18a372.6,372.6,0,0,1,120.9,81.13m6.42-19.25c-146.87-146.88-385-146.88-531.88,0s-146.88,385,0,531.88,385,146.88,531.88,0,146.88-385,0-531.88Z"/><path class="cls-3" d="M531.3,408.73c-29,14.07-45.09,65-45.09,65l34.56,5.88S505.79,435.85,531.3,408.73Z"/><path class="cls-3" d="M260.7,408.73c24.95,14.25,42.5,68,42.5,68l-32.71,6S285.65,427.62,260.7,408.73Z"/><path class="cls-3" d="M531.81,213.93c-15.76,0-32.48,5.28-45.52,12.41,3.13,6.15,6.39,12.85,8.21,19.68,13.36-7.59,32.15-14.52,48.47-14.52,33.38,0,59.62,19,76.23,46.27C606.15,240.37,572.39,213.93,531.81,213.93Z"/><path class="cls-3" d="M397.91,154.92c-43.15,0-81.71,29.1-92.61,70.25-13.36-7.6-28.29-10.77-44.6-10.77C208.93,214.4,167,259.31,167,313a94.3,94.3,0,0,0,14.4,50.4c-3.59-10.31-2.74-23.1-2.74-34.7,0-53.67,41.95-97.17,93.72-97.17a90.71,90.71,0,0,1,45,11.94C328.27,202.29,364.52,172,407.67,172c33.42,0,62.19,27.29,78.76,54.6C474.47,184.52,438.53,154.92,397.91,154.92Z"/><path d="M662.93,129.07A377.5,377.5,0,1,0,129.07,662.93,377.5,377.5,0,1,0,662.93,129.07ZM540.22,737.4A370.61,370.61,0,0,1,251.78,54.6,370.61,370.61,0,0,1,540.22,737.4Z"/><path d="M317.38,245.53a2.1,2.1,0,0,1-.92-.21c-.38-.19-38-18.4-61.41-10a2.09,2.09,0,1,1-1.41-3.94c21.83-7.81,53.47,5.14,62.33,9.13,2.87-10.28,16.27-48.76,59.18-64.65a2.1,2.1,0,0,1,1.46,3.93c-47.33,17.53-57.08,63.64-57.18,64.1a2.1,2.1,0,0,1-2.05,1.68Z"/><path d="M532.64,411.51c52.61-.74,95.18-45.29,95.18-99.94,0-55.12-43.3-100-96.52-100A94,94,0,0,0,488,222.21c-12.52-41.44-49.88-70.09-92-70.09s-79.5,28.65-92,70.09A94,94,0,0,0,260.7,211.6c-53.22,0-96.52,44.85-96.52,100,0,54.75,42.73,99.36,95.46,99.95,3.23,3.14,17.65,20.32,8.45,68.91-14.58,3.07-35.75,8.16-52.73,14.76a2.1,2.1,0,0,0,.76,4.05,2,2,0,0,0,.76-.14c28.34-11,68.71-17.79,69.11-17.86a2.09,2.09,0,1,0-.68-4.13c-.13,0-4.51.76-11.32,2.11,9.92-55.77-10.71-72-11.61-72.72a2.78,2.78,0,0,0-1.68-.56c-50.14,0-90.93-42.34-90.93-94.37s40.79-94.38,90.93-94.38a88.36,88.36,0,0,1,43.63,11.58,2.8,2.8,0,0,0,2.46.14,2.77,2.77,0,0,0,1.62-1.86c10.81-40.83,46.83-69.34,87.59-69.34s76.78,28.51,87.59,69.34a2.77,2.77,0,0,0,1.62,1.86,2.8,2.8,0,0,0,2.46-.14,88.34,88.34,0,0,1,43.63-11.58c50.14,0,90.93,42.34,90.93,94.38s-40.79,94.37-90.93,94.37a2.79,2.79,0,0,0-2.08.93c-.93,1-22,25.21-12.57,70-11.31-2.14-19.45-3.29-19.63-3.32a2.1,2.1,0,1,0-.58,4.15c.42.06,42.13,6,68,16.07a2.06,2.06,0,0,0,.76.15,2.1,2.1,0,0,0,.77-4.05c-12.89-5-29.59-9.05-43.33-11.83C513.68,439.41,529,416.28,532.64,411.51Z"/><path d="M296.23,479.48a2.1,2.1,0,0,1-.42-4.15c.54-.11,13.38-2.74,23.21-3.71a2.1,2.1,0,1,1,.41,4.17c-9.61.95-22.65,3.62-22.78,3.65A2,2,0,0,1,296.23,479.48Z"/><path d="M519.17,392.49a2.1,2.1,0,0,1-.06-4.19c65.08-1.86,79.6-51,79.74-51.52a2.1,2.1,0,0,1,4,1.13c-.15.52-15.54,52.63-83.66,54.58Z"/><path d="M204.93,580.76c-1.11,9.76-4.34,16.88-9.6,21.16-4.87,4-11.05,6-18.34,6-8.27-.2-15-3.31-20.05-9.26s-7.63-14-7.63-23.83S151.91,557,157,551s12-8.91,20.53-8.91a26.78,26.78,0,0,1,15.59,4.55,21.68,21.68,0,0,1,8.67,12.92l.13.53h2.26l-2.17-15.29-.26-.17a43.18,43.18,0,0,0-24.22-6.95c-11.13,0-20.21,3.45-27,10.26s-10.2,15.88-10.2,27,3.43,20.18,10.2,27,15.65,10.29,26.39,10.36c12.94,0,22.64-5.15,28.85-15.32l.08-.14,1.28-16.7H205Z"/><path d="M278.8,607a10.25,10.25,0,0,1-3.56-4.42l-27.12-64.87h-2.07v.7c0,.93-.64,3.44-3.67,10.08l-22.71,54.06A10.89,10.89,0,0,1,216,607a8.13,8.13,0,0,1-4.54,1.49h-1.6v2.4h21.61v-2.4h-1.61a3.08,3.08,0,0,1-2.61-1.09,3.51,3.51,0,0,1-.91-2.08,6.71,6.71,0,0,1,.35-2.11l6.57-16.75h26.18l6.26,16.61a7.1,7.1,0,0,1,.37,2.2,3.62,3.62,0,0,1-.91,2.13,3.1,3.1,0,0,1-2.62,1.09h-1.6v2.4h24v-2.4h-1.51A8.31,8.31,0,0,1,278.8,607Zm-21.1-25H235l11.63-29.63Z"/><path d="M332.1,538.29a36.8,36.8,0,0,1-8,.73h-34a43.1,43.1,0,0,1-6.73-.59,26.75,26.75,0,0,1-5.08-1.17l-.95-.38v14.47l2.4-.24v-2.34a5.14,5.14,0,0,1,1.47-3.69,5,5,0,0,1,3.56-1.64h18.4V603a5.75,5.75,0,0,1-5.74,5.46h-2v2.4h23.42v-2.4h-2a5.47,5.47,0,0,1-4-1.61,5.56,5.56,0,0,1-1.75-3.93V543.44h18.37a5.39,5.39,0,0,1,5.06,5.33v2.34l2.41.24V536.86l-1,.41A30,30,0,0,1,332.1,538.29Z"/><path d="M390.07,593.66a24,24,0,0,1-6.33,9.57c-2.48,2.1-6.15,3.16-10.92,3.16H359.15V577.72H375.5a4.11,4.11,0,0,1,2.9,1.3,4,4,0,0,1,1.17,2.93v2.21H382V566.87h-2.4V569a4.08,4.08,0,0,1-1.21,3,4.29,4.29,0,0,1-2.92,1.3H359.15V543.64h19.78a5.23,5.23,0,0,1,5,5.23v2.51h2.4V537l-1,.38a26.19,26.19,0,0,1-5,1.17,40.74,40.74,0,0,1-6.67.59H343.4l.24,2.41h1.84a5.93,5.93,0,0,1,4.06,1.48,4.48,4.48,0,0,1,1.67,3.55v56.28a5.73,5.73,0,0,1-1.75,4,5.38,5.38,0,0,1-4,1.66h-2v2.4h42.92l6.33-17.68h-2.47Z"/><path d="M458.38,607.16a13,13,0,0,1-2.48-1.53,28,28,0,0,1-2.36-2c-.72-.69-2-2-3.69-3.88s-5.48-7-11.21-15.18a37.39,37.39,0,0,0-3.74-4.35,22.65,22.65,0,0,0-1.9-1.71,16.24,16.24,0,0,0,10.49-6,21.72,21.72,0,0,0,5.14-14.43,18.3,18.3,0,0,0-5.44-13.67c-3.61-3.5-8.61-5.28-14.86-5.28H400.48v2.41h2a5.41,5.41,0,0,1,4,1.65,5.74,5.74,0,0,1,1.75,4v55.78a5.57,5.57,0,0,1-1.75,3.95,5.47,5.47,0,0,1-4,1.61h-2v2.4H424l-.24-2.4h-1.84a5.47,5.47,0,0,1-4.08-1.66,5.38,5.38,0,0,1-1.66-4V543.64h5.74c2.38,0,4.4,0,6,.1a11,11,0,0,1,8.44,4.16c2.1,2.62,3.23,6.13,3.36,10.42v2.26a12.32,12.32,0,0,1-.57,3.56c-2.06,6.52-7,9.78-15.06,10a34.46,34.46,0,0,1-5.2,0l-.78-.1v2.5h.69c1.94,0,3.93,1.07,5.92,3.19.72.78,1.42,1.6,2.08,2.42.46.58,2.07,2.8,7.11,10.07,4.08,5.88,6.61,9.4,7.54,10.47A39,39,0,0,0,444.7,606a21,21,0,0,0,5.78,3.34,21.33,21.33,0,0,0,8.31,1.61H465v-2.4h-.7A13.56,13.56,0,0,1,458.38,607.16Z"/><path d="M465.53,541.53h2a5.43,5.43,0,0,1,4,1.61,5.55,5.55,0,0,1,1.75,3.92v55.78a5.73,5.73,0,0,1-1.75,4,5.38,5.38,0,0,1-4,1.66h-2v2.4H489v-2.4h-2a5.54,5.54,0,0,1-4-1.66,5.31,5.31,0,0,1-1.7-4V547.09a5.61,5.61,0,0,1,1.75-4,5.45,5.45,0,0,1,4-1.61h2v-2.41H465.53Z"/><path d="M552.8,541.53h2.61a5.29,5.29,0,0,1,3.84,1.56,5.47,5.47,0,0,1,1.69,3.87v48.1l-53.58-57.22-.21-.22h-2.1l.3,2.4a76.7,76.7,0,0,1,.7,10.86v52.18a5.13,5.13,0,0,1-1.6,3.88,5.28,5.28,0,0,1-3.84,1.56H498v2.4h22.1v-2.4h-2.6a5.26,5.26,0,0,1-3.84-1.56,5,5,0,0,1-1.6-3.78v-48.3l53.59,57.23.2.22h2l-.29-2.6a83.21,83.21,0,0,1-.69-11V546.89a5.36,5.36,0,0,1,1.69-3.8,5.29,5.29,0,0,1,3.84-1.56h2.51v-2.41H552.8Z"/><path d="M634.14,575.82v2.4h2.31a5,5,0,0,1,3.31,1,3.5,3.5,0,0,1,1.12,2.84v17.49a31.71,31.71,0,0,1-9.87,6.09,33.07,33.07,0,0,1-12.15,2.27c-8.26-.07-15-3.12-20.14-9.06S591,584.85,591,575s2.6-17.87,7.72-23.88,11.87-9,20.13-9c6.46,0,11.92,1.53,16.24,4.55a21.74,21.74,0,0,1,8.62,12.92l.14.53h2.25l-2.17-15.29-.27-.17a44.82,44.82,0,0,0-24.81-6.95c-10.87,0-19.81,3.47-26.58,10.31S582.06,564,582.06,575s3.43,20.13,10.21,26.94,15.71,10.29,26.58,10.36a42,42,0,0,0,13.45-2.1,35.79,35.79,0,0,0,9.9-4.88,32.33,32.33,0,0,0,6.36-6.27l.15-.18V582a3.3,3.3,0,0,1,1-2.81,4.94,4.94,0,0,1,3.36-1h2.2v-2.4Z"/><path d="M199.08,514.72a2.1,2.1,0,0,1-.62-4.1c128.63-39.52,250.46-39.52,395,0a2.09,2.09,0,0,1-1.11,4c-143.75-39.28-264.86-39.29-392.68,0A1.86,1.86,0,0,1,199.08,514.72Z"/><path d="M316.55,365.91c.69-1.56,1-2.34,1.74-3.9a9.9,9.9,0,0,0,5.52,1.37c3.53-.22,6.64-2.55,9.38-7s5-10.22,6.71-17.39c-17.9.85-26.84,1.47-44.71,3.07-2,3.86-3,5.8-4.9,9.68q-5.42,10.71-12.82,16.2a35.3,35.3,0,0,1-17,6.68c-6.38.8-11.19.07-14.44-2.26s-5.06-5-5.4-8.09a11.12,11.12,0,0,1,1.64-7.75,8.11,8.11,0,0,1,5.84-3.65,6,6,0,0,1,5.71,1.86,11.88,11.88,0,0,1,2.44,6.66,7.39,7.39,0,0,1-3,6.95,2.71,2.71,0,0,0,1.66,1.26,7.64,7.64,0,0,0,3.67.25,15.77,15.77,0,0,0,4.38-1.19,16.82,16.82,0,0,0,4.69-3.4,33.06,33.06,0,0,0,5.33-7.2c3.9-6.75,8.67-16.88,14.5-30.38a211.19,211.19,0,0,1,17.93-33.82,111.81,111.81,0,0,1,22.66-24.56,33.35,33.35,0,0,0-10.41-4,47,47,0,0,0-29.13,3.36,42,42,0,0,0-13.15,9A44.81,44.81,0,0,0,267,290c-4.23,8.9-5.76,18.94-4.73,30.09a73.92,73.92,0,0,0,5.62,22.14l-4.21,2.84a57.6,57.6,0,0,1-10.44-27.82,52.19,52.19,0,0,1,1.86-20.09,53.21,53.21,0,0,1,9.2-17.91A49.73,49.73,0,0,1,281,265.8a60.81,60.81,0,0,1,23.41-6.38c6.26-.48,10.76-.32,13.5.41,2.11.52,3.17.79,5.27,1.33a27,27,0,0,1,6.26,2.7c2.41,1.35,3.64,2.06,3.69,2.1A50.19,50.19,0,0,1,344.89,261a55.38,55.38,0,0,1,11.51-1.42l1.88,3.49a37.26,37.26,0,0,0-20.45,6.5,45.46,45.46,0,0,1,13.25,19.51,82.8,82.8,0,0,1,4.77,26.64,102.19,102.19,0,0,1-3.05,27.84q-3.37,13.29-9.23,21.23c-3.9,5.3-8.19,8.08-12.94,8.35S321.22,371,316.55,365.91Zm16.91-92.64A79.21,79.21,0,0,0,315,296.33a226.27,226.27,0,0,0-10.74,23.38c-3.18,8.11-5.46,13.9-6.92,17.35,17.44-1.52,26.17-2.11,43.63-2.92a127.84,127.84,0,0,0,2.27-28.3C342.7,290.38,339.48,279.49,333.46,273.27Z"/><path d="M389.16,309.94a9.3,9.3,0,0,1,6.95,2.68c1.78,1.8,2.65,4.52,2.63,8.16a11.9,11.9,0,0,1-3.42,8.79,10.5,10.5,0,0,1-7.54,3.35,9.56,9.56,0,0,1-7-2.75q-2.83-2.76-2.88-8.1a11.38,11.38,0,0,1,3.46-8.74A11,11,0,0,1,389.16,309.94Z"/><path d="M550.4,263.13l1.05,3.72a54.83,54.83,0,0,0-12.69,2l-2,.57a22.22,22.22,0,0,1,7.43,8.43c1.69,3.37,2.38,6.34,2.1,8.91a25.85,25.85,0,0,1-3.4,10.88,28.9,28.9,0,0,1-2.89,4,46.43,46.43,0,0,1-3.17,3.44c-.95.91-2.1,1.92-3.47,3s-2.42,1.95-3.18,2.51l-5.07,3.46c6.35,3.77,11,7.93,14,12.41a22.82,22.82,0,0,1,3.5,15.76,33.94,33.94,0,0,1-6.82,16.77,37.57,37.57,0,0,1-14.24,11.77,31.66,31.66,0,0,1-17.35,3c-6.57-.71-11.43-3.28-14.65-7.77a12.11,12.11,0,0,1-2.32-8.15,10.36,10.36,0,0,1,3-7.06,7.56,7.56,0,0,1,6.2-2.2,7.89,7.89,0,0,1,5.4,2.52,6.32,6.32,0,0,1,1.65,4.76,8.38,8.38,0,0,1-1.15,4,6.84,6.84,0,0,1-2.1,2.09,11.2,11.2,0,0,1-2.42,1.11,9.12,9.12,0,0,1-2.89.62c-.17,2.2,2.15,3.81,7,4.88a21.53,21.53,0,0,0,2.33.4c6.18.67,11.59-1.33,16.31-6.06a28.12,28.12,0,0,0,8.16-17.54,22.63,22.63,0,0,0-1.15-10,22.23,22.23,0,0,0-4.52-7.81,47.8,47.8,0,0,0-5.74-5.35,58.67,58.67,0,0,0-5-3.56c-1.37-.87-2.05-1.41-2-1.63s.77-.76,2.24-1.61,3.3-2,5.47-3.35a61.33,61.33,0,0,0,6.55-4.86,27.58,27.58,0,0,0,5.86-7,21.1,21.1,0,0,0,3-8.83A23.77,23.77,0,0,0,532,281.41a14.77,14.77,0,0,0-6.36-8.18c-9.52,4.71-16.71,13-21.57,24.77a122.43,122.43,0,0,0-4.89,13.65Q494.91,327,493.11,333a52.7,52.7,0,0,1-6.4,12.9,57.53,57.53,0,0,1-10.85,12.37A43.09,43.09,0,0,1,461,366.4a50.55,50.55,0,0,1-18.45,2.32c-9-.45-16.32-3-21.87-7.87-4.39-3.82-6.56-9.06-6.45-15.69a24.4,24.4,0,0,1,3.15-12,22.76,22.76,0,0,1,7.89-8.22,36.21,36.21,0,0,1,21.26-5.44,54.65,54.65,0,0,1,6.3-23.39A60.09,60.09,0,0,1,468,277.24a65.55,65.55,0,0,1,21.87-11.68A60.72,60.72,0,0,1,515.24,263a118.74,118.74,0,0,1,14.35,3C539,263.71,545.94,262.8,550.4,263.13Zm-97.2,79.69-4.27,1.12a71.44,71.44,0,0,1-1.92-9,51.3,51.3,0,0,1-.85-7,33.18,33.18,0,0,0-10.47,1.17,37.39,37.39,0,0,0-8.48,3.22,16,16,0,0,0-5.46,5.21,14.76,14.76,0,0,0-2.4,8.08,15.68,15.68,0,0,0,2,8.23,14.24,14.24,0,0,0,5.49,5.53,30.75,30.75,0,0,0,13.94,4.11,41.87,41.87,0,0,0,12.7-1.05,29.37,29.37,0,0,0,9.2-4,33,33,0,0,0,7.11-6.74,47.71,47.71,0,0,0,5.49-8.52q2.17-4.4,4.41-10.11t3.82-10.71a195,195,0,0,1,8.43-22.15,67,67,0,0,1,11.71-17,59.32,59.32,0,0,1,16.94-12.88A46.42,46.42,0,0,0,509.66,268a43.88,43.88,0,0,0-15.41,1.53,56.11,56.11,0,0,0-16.33,7.15,68.6,68.6,0,0,0-13.67,11.5,53.62,53.62,0,0,0-9.65,14.91,46.81,46.81,0,0,0-4,16.79c10.05,2.82,17.14,7.44,21.27,13.7-1.23,1.23-1.85,1.85-3.07,3.09-4.5-3.7-7.93-5.91-10.23-6.66s-3.69-1.18-4.15-1.31a34.39,34.39,0,0,0-4.31-.7,86.55,86.55,0,0,0,2.4,12.51Z"/></svg>